# xmcd
#
# Track frame offsets:
#	150
#	13491
#	27046
#	39416
#	53426
#	67641
#	81567
#	94796
#	108614
#	121781
#	135051
#	151502
#	166631
#	180695
#	193853
#	206546
#	220402
#	233641
#
# Disc length: 3324 seconds
#
# Revision: 0
# Processed by: cddbd v1.5.2PL0 Copyright (c) Steve Scherf et al.
# Submitted via: dBpowerAMP V4.0
#
DISCID=dc0cfa12
DTITLE=AA.VV. - Irish Favourites cd 2
DYEAR=2005
DGENRE=Irish Music
TTITLE0=01 - John J. Kimmel - Briant's Favourites/Birds in the Tree
TTITLE1=02 - Packie Dolan and michael Coleman - The Blackhaired Lass/The Dublin
TTITLE2=03 - Murty Rabbett - Molly Durkin
TTITLE3=04 - The Ballinakill Ceilidh Band - Knocknavow/The Fowling Piece
TTITLE4=05 - Paddy Sweeney - Georgie White's Favourite/The Lass  of Carracastle
TTITLE5=06 - Edward Mullaney and Patrick Stack - The Chicago Reel
TTITLE6=07 - James McCafferty - The Donovans
TTITLE7=08 - John Griffin - The Real Old Mountain Dew
TTITLE8=09 - Dan Sullivan's Shamrock band - Johnny Will You Marry me?
TTITLE9=10 - Frank Lee's Tara Cleilidh Band - Kitty's Rambles/Merry Old Woman/Homours of Ballinafad
TTITLE10=11 - Margaret Nurke Sheridan - Danny Boy
TTITLE11=12 - Packie Dolan - A Drink in The Morning
TTITLE12=13 -Paddy Killoran - The Crease in the Bog
TTITLE13=14 -  Paddy Sweeney and Paddy killoran - Farrell Gara/The Silver Spire
TTITLE14=15 - Michael J. Cashin - Ginger's Favourite/The bog's of Allen
TTITLE15=16 - John McGettigan and His Irish Minstrels - Me Husband's Flannel Shirt
TTITLE16=17 - Edward Mullaney and patrick Stack - The Rambling Pitchfork
TTITLE17=18 - The Fingal Trio - Sean Bhean Bocht/The Dancer at The Fair
EXTD=IRISH MUSIC\nAA.VV. - \nIRISH FAVOURITES  CD 2\n\n01 - John J. Kimmel - Briant's Favourites/Birds in the Tree\n02 - Packie Dolan and michael Coleman - The Blackhaired Lass/The Dublin\n03 - Murty Rabbett - Molly Durkin\n04 - The Ballinakill Ceilidh Ba
EXTD=nd - Knocknavow/The Fowling Piece\n05 - Paddy Sweeney - Georgie White's Favourite/The Lass  of Carracastle\n06 - Edward Mullaney and Patrick Stack - The Chicago Reel\n07 - James McCafferty - The Donovans\n08 - John Griffin - The Real Old Mountain Dew
EXTD=\n09 - Dan Sullivan's Shamrock band - Johnny Will You Marry me?\n10 - Frank Lee's Tara Cleilidh Band - Kitty's Rambles/Merry Old Woman/Homours of Ballinafad\n11 - Margaret Nurke Sheridan - Danny Boy\n12 - Packie Dolan - A Drink in The Morning\n13 -
EXTD=Paddy Killoran - The Crease in the Bog\n14 -  Paddy Sweeney and Paddy killoran - Farrell Gara/The Silver Spire\n15 - Michael J. Cashin - Ginger's Favourite/The bog's of Allen\n16 - John McGettigan and His Irish Minstrels - Me Husband's Flannel Shirt\n1
EXTD=7 - Edward Mullaney and patrick Stack - The Rambling Pitchfork\n18 - The Fingal Trio - Sean Bhean Bocht/The Dancer at The Fair
EXTT0=
EXTT1=
EXTT2=
EXTT3=
EXTT4=
EXTT5=
EXTT6=
EXTT7=
EXTT8=
EXTT9=
EXTT10=
EXTT11=
EXTT12=
EXTT13=
EXTT14=
EXTT15=
EXTT16=
EXTT17=
PLAYORDER=
